<?xml version="1.0" encoding="UTF-8"?>
<svg id="setting" xmlns="http://www.w3.org/2000/svg" viewBox="0 0 400 400">
  <path d="M200.007,270.385c-38.876,0-70.399-31.509-70.399-70.385s31.524-70.399,70.399-70.399,70.385,31.524,70.385,70.399-31.509,70.385-70.385,70.385Z" fill="none" stroke="#4f46e5" stroke-linecap="round" stroke-linejoin="round" stroke-width="12"/>
  <path d="M341.546,167.737h-21.938c-3.565,0-6.775-2.249-7.944-5.621-1.686-4.852-3.683-9.556-5.947-14.098-1.627-3.24-.962-7.145,1.598-9.704l15.592-15.592c3.299-3.299,3.299-8.654,0-11.953l-33.683-33.669c-3.299-3.299-8.639-3.299-11.953,0l-15.873,15.873c-2.53,2.53-6.405,3.21-9.63,1.627-4.453-2.175-9.068-4.083-13.817-5.695-3.417-1.154-5.695-4.379-5.695-7.973v-22.485c0-4.66-3.772-8.447-8.447-8.447h-47.618c-4.675,0-8.447,3.787-8.447,8.447v22.485c0,3.595-2.278,6.82-5.695,7.973-4.749,1.612-9.364,3.521-13.817,5.695-3.225,1.583-7.101.902-9.63-1.627l-15.873-15.873c-3.299-3.299-8.654-3.299-11.953,0l-33.683,33.669c-3.299,3.299-3.299,8.654,0,11.953l15.592,15.592c2.559,2.559,3.225,6.464,1.598,9.704-2.263,4.541-4.26,9.246-5.932,14.098-1.183,3.373-4.394,5.621-7.959,5.621h-21.938c-4.675,0-8.447,3.787-8.447,8.447v47.633c0,4.66,3.772,8.447,8.447,8.447h21.361c3.654,0,6.879,2.337,8.018,5.799,1.657,4.985,3.639,9.823,5.902,14.482,1.583,3.254.947,7.145-1.598,9.689l-15.044,15.044c-3.299,3.299-3.299,8.639,0,11.938l33.683,33.683c3.299,3.299,8.654,3.299,11.953,0l14.749-14.748c2.574-2.574,6.509-3.195,9.763-1.568,4.749,2.367,9.675,4.438,14.748,6.154,3.432,1.169,5.754,4.379,5.754,8.003v20.799c0,4.675,3.772,8.461,8.447,8.461h47.618c4.675,0,8.447-3.787,8.447-8.461v-20.799c0-3.624,2.322-6.834,5.754-8.003,5.074-1.716,10-3.787,14.748-6.154,3.254-1.627,7.189-1.006,9.763,1.568l14.748,14.748c3.314,3.299,8.654,3.299,11.953,0l33.683-33.683c3.299-3.299,3.299-8.639,0-11.938l-15.044-15.044c-2.544-2.544-3.18-6.435-1.598-9.689,2.263-4.66,4.246-9.497,5.902-14.482,1.139-3.461,4.364-5.799,8.018-5.799h21.361c4.675,0,8.447-3.787,8.447-8.447v-47.633c0-4.66-3.772-8.447-8.447-8.447Z" fill="none" stroke="#191919" stroke-linecap="round" stroke-linejoin="round" stroke-width="12"/>
</svg>